<svg width="24" height="24" viewBox="0 0 24 24" fill="none" xmlns="http://www.w3.org/2000/svg">
<path fill-rule="evenodd" clip-rule="evenodd" d="M7.61899 4.02531C6.32534 4.1981 5.31085 5.22973 4.94868 6.31623C4.72212 6.99592 4.625 7.51142 4.625 8.0625C4.625 8.62975 4.72774 9.28785 4.97014 10.2575C5.21574 11.2398 5.44227 12.0168 5.88235 12.8419C6.32282 13.6678 7.00399 14.5898 8.20711 15.7929C9.41022 16.996 10.3322 17.6772 11.1581 18.1176C11.9832 18.5577 12.7602 18.7843 13.7425 19.0299C14.7122 19.2723 15.3702 19.375 15.9375 19.375C16.4886 19.375 17.0041 19.2779 17.6838 19.0513C18.7703 18.6891 19.8019 17.6747 19.9747 16.381C19.9183 16.344 19.8518 16.3023 19.7746 16.2559C19.3851 16.0222 18.84 15.7413 18.2594 15.4662C17.6824 15.1929 17.0929 14.9361 16.6233 14.7498C16.3874 14.6562 16.192 14.5844 16.0487 14.5377C16.0119 14.5258 15.9814 14.5164 15.9567 14.5092C15.919 14.5205 15.8554 14.5457 15.7605 14.602C15.5927 14.7017 15.3991 14.8546 15.1585 15.0651C15.0821 15.1319 14.9912 15.2136 14.8943 15.3007C14.7313 15.4472 14.5513 15.6089 14.3949 15.7409C14.1266 15.9672 13.8045 16.2158 13.4472 16.3944C12.8921 16.672 12.3222 16.619 11.8845 16.4915C11.4477 16.3642 11.043 16.1361 10.712 15.9127C10.0556 15.4699 9.50098 14.9152 9.3002 14.7144L9.29289 14.7071C9.27848 14.6927 9.26395 14.6782 9.24933 14.6636C8.78176 14.1962 8.21321 13.6279 7.8395 13.03C7.43766 12.387 7.13345 11.497 7.60557 10.5528C7.78423 10.1955 8.03278 9.87341 8.25915 9.60513C8.39114 9.44869 8.55285 9.26872 8.69933 9.10569C8.78638 9.00882 8.86805 8.91792 8.93492 8.8415C9.14543 8.60091 9.2983 8.4073 9.39796 8.23946C9.4543 8.14456 9.47955 8.08096 9.49085 8.0433C9.48363 8.0186 9.47423 7.98808 9.46225 7.9513C9.41558 7.808 9.34381 7.61257 9.2502 7.37666C9.06386 6.90708 8.80707 6.31757 8.53376 5.74059C8.25874 5.15998 7.97778 4.61495 7.74407 4.22543C7.69775 4.14823 7.65599 4.08172 7.61899 4.02531ZM9.51002 8.11725C9.50992 8.11712 9.50919 8.11394 9.50818 8.10807C9.50963 8.11444 9.51013 8.11737 9.51002 8.11725ZM15.8828 14.49C15.8827 14.4899 15.8856 14.4904 15.8919 14.4918C15.886 14.4908 15.8828 14.4901 15.8828 14.49ZM3.05132 5.68377C3.65429 3.87486 5.4733 2 8 2C8.3759 2 8.63694 2.19258 8.72819 2.26426C8.84955 2.35959 8.94844 2.46855 9.02168 2.55714C9.17149 2.73834 9.32066 2.96579 9.45906 3.19644C9.74097 3.6663 10.0538 4.27752 10.3412 4.88441C10.6304 5.49493 10.9049 6.12417 11.1092 6.63897C11.2109 6.89524 11.2993 7.1334 11.3639 7.3319C11.396 7.43053 11.4259 7.53037 11.4488 7.624C11.4666 7.69675 11.5 7.84166 11.5 8C11.5 8.49938 11.3141 8.92964 11.1177 9.26054C10.9204 9.5927 10.6671 9.89909 10.4401 10.1585C10.3305 10.2837 10.2345 10.3901 10.1442 10.4903C10.0216 10.6262 9.90942 10.7506 9.78773 10.8949C9.59222 11.1266 9.46577 11.3045 9.39443 11.4472C9.36655 11.503 9.31234 11.613 9.5355 11.97C9.7751 12.3534 10.1825 12.7683 10.7071 13.2929C10.9028 13.4885 11.3426 13.9256 11.8305 14.2548C12.0757 14.4202 12.2855 14.5252 12.4439 14.5713C12.5143 14.5918 12.5545 14.5954 12.5726 14.5954C12.7119 14.5225 12.884 14.3988 13.1051 14.2123C13.2494 14.0906 13.3738 13.9784 13.5097 13.8558C13.6099 13.7655 13.7163 13.6695 13.8415 13.5599C14.1009 13.3329 14.4073 13.0796 14.7395 12.8823C15.0704 12.6859 15.5006 12.5 16 12.5C16.1583 12.5 16.3033 12.5334 16.376 12.5512C16.4696 12.5741 16.5695 12.604 16.6681 12.6361C16.8666 12.7007 17.1048 12.7891 17.361 12.8908C17.8758 13.0951 18.5051 13.3696 19.1156 13.6588C19.7225 13.9462 20.3337 14.259 20.8036 14.5409C21.0342 14.6793 21.2617 14.8285 21.4429 14.9783C21.5314 15.0516 21.6404 15.1504 21.7357 15.2718C21.8074 15.3631 22 15.6241 22 16C22 18.5267 20.1251 20.3457 18.3162 20.9487C17.4959 21.2221 16.7614 21.375 15.9375 21.375C15.1298 21.375 14.2878 21.2277 13.2575 20.9701C12.2398 20.7157 11.2668 20.4423 10.2169 19.8824C9.16779 19.3228 8.08978 18.504 6.79289 17.2071C5.49601 15.9102 4.67718 14.8322 4.11765 13.7831C3.55773 12.7332 3.28426 11.7602 3.02986 10.7425C2.77226 9.71215 2.625 8.87025 2.625 8.0625C2.625 7.23858 2.77788 6.50408 3.05132 5.68377ZM12.5842 14.5947C12.5843 14.5948 12.5831 14.595 12.5805 14.5952C12.5829 14.5947 12.5842 14.5946 12.5842 14.5947Z" fill="#808080"/>
</svg>
